<?xml version="1.0" encoding="utf-8"?>
<!-- Designed by Vexels.com - 2016 All Rights Reserved - https://vexels.com/terms-and-conditions/  -->

<svg version="1.0" id="Capa_1" xmlns="http://www.w3.org/2000/svg" xmlns:xlink="http://www.w3.org/1999/xlink" x="0px" y="0px"
	 width="1200px" height="1200px" viewBox="0 0 1200 1200" enable-background="new 0 0 1200 1200" xml:space="preserve">
<g>
	<path fill="#414042" d="M282.675,480.225c0,0,3.691,19.65,0,42.974c-3.672,23.324,17.185,9.821,17.185,9.821
		s11.054,14.727,3.69,33.136c-7.372,18.417,34.369,12.278,34.369,27.014c0,14.727,18.417,6.139,18.417,0
		s22.091-11.054,22.091-11.054s-7.373-34.369-17.185-54.011c-9.821-19.641-11.045-51.552-4.906-65.065
		c6.13-13.502,6.13-18.408-2.467-36.826c-8.587-18.408,13.512-50.328,13.512-50.328s6.139-57.702,14.726-89.613
		c23.333-88.379,122.757-89.603,122.757-89.603c74.876-6.139,110.487,27.005,128.887,52.777
		c18.426,25.78,17.193,84.706,24.566,106.796c2.637,7.958,3.06,21.775,2.52,36.961c-0.729,2.799-1.558,5.986-2.52,9.686
		c-7.373,28.238-1.233,24.556-11.055,42.974c-9.821,18.408-9.821,62.598-14.736,83.473c-4.906,20.866-24.548,72.419-35.593,79.783
		c-11.054,7.363-72.429,46.647-77.334,56.468c-4.915,9.83-35.602,15.96-41.741,14.736s-27.005-9.821-35.593-13.511
		c-8.596-3.682-12.287,8.606-12.287,8.606s-30.687-52.787-33.136-56.477c-2.458-3.682-8.597-17.184-8.597-17.184l22.702-7.076
		c0,0,41.219,12.945,56.585-25.862c17.769,40.418,53.335,15.357,63.048,21.01c9.695,5.662,43.641,7.283,53.344-20.2
		c-53.344,8.075-98.623-16.968-119.633-28.292c-25.853,14.547-58.853,30.966-58.853,30.966c-8.597,6.13-27.014,9.811-27.014,9.811
		c-9.821,6.139,0,17.193,1.233,44.19c1.224,27.014,19.633,76.109,44.189,87.154c24.548,11.055,24.548,22.1,39.275,50.338
		c12.278-23.324,51.562-29.463,77.343-41.733c25.781-12.278,81.024-42.965,111.711-94.536c30.687-51.544,12.27-98.192,12.27-98.192
		s-6.13-14.726-4.906-30.696c0.171-2.178,0.72-5.31,1.512-9.046c3.376,7.418,8.507,11.342,15.672,5.365
		c14.727-12.278,40.508-29.463,40.508-29.463s1.224,15.961,1.224,22.1s-19.633,30.687-38.059,49.105
		c11.054,20.856-1.225,60.141-1.225,60.141c9.822-6.122,15.961-54.011,15.961-54.011s13.502,14.726,13.502,30.696
		c0,15.95,23.333,25.78,27.005,22.09c3.682-3.673,14.727-24.548,12.279-9.812c-2.449,14.727,33.144,47.872,33.144,47.872
		s34.369,17.184,61.374,2.448c27.014-14.718,14.736-49.105,9.83-73.644c-4.906-24.548,7.363-18.417,20.865-34.378
		c13.503-15.96,9.812-67.513-3.682-76.109c-13.511-8.587-19.641-13.502-15.96-33.144c3.682-19.633-31.911-54.011-55.244-60.141
		c-23.324-6.139-71.204-69.97-76.1-90.846c-4.915-20.875-51.572-69.97-81.025-83.473c-29.454-13.503-131.344-15.961-176.776-6.14
		c-45.414,9.822-114.151,83.474-112.927,98.201c1.224,14.736-44.189,45.432-66.289,72.428c-22.1,27.005-13.494,40.517-12.27,54.011
		c1.225,13.511-2.457,22.099-8.596,40.517C258.127,461.816,282.675,480.225,282.675,480.225z"/>
	<path fill="#414042" d="M954.151,763.798C846.751,707.06,793.749,660.386,778.5,645.812c-1.017,6.211-2.196,13.187-3.574,21.001
		c-8.587,49.113-55.243,99.442-79.791,123.981c-24.557,24.565-66.279,63.849-69.97,63.849c-3.682,0-88.379-34.386-116.618-58.925
		c-7.301-6.365-14.195-7.678-20.488-6.32l-15.969,9.011c-9.613,8.425-16.338,18.778-18.777,14.492
		c-4.915-8.587-17.184-23.332-38.05-18.417c-20.876,4.906-73.661,4.915-103.124,15.96c6.148-34.729,17.202-64.714,28.832-88.919
		c-33.135,11.108-178.595,75.083-249.798,306.195c41.75-2.448,1017.657,0,1017.657,0S1084.262,832.544,954.151,763.798z"/>
</g>
</svg>
